<?xml version="1.0" encoding="iso-8859-1"?>
<!-- Generator: Adobe Illustrator 16.0.0, SVG Export Plug-In . SVG Version: 6.00 Build 0)  -->
<!DOCTYPE svg PUBLIC "-//W3C//DTD SVG 1.1//EN" "http://www.w3.org/Graphics/SVG/1.1/DTD/svg11.dtd">
<svg version="1.1" id="Capa_1" xmlns="http://www.w3.org/2000/svg" xmlns:xlink="http://www.w3.org/1999/xlink" x="0px" y="0px"
	 width="418.441px" height="418.442px" viewBox="0 0 418.441 418.442" style="enable-background:new 0 0 418.441 418.442;"
	 xml:space="preserve">
<g>
	<path d="M391.688,241.15c-34.428-34.429-75.049-13.392-93.934-32.276c-18.883-18.885-20.77-38.082-35.322-52.637
		c-14.892-14.89-31.402-21.316-49.078-19.101c-9.877,1.24-19.752,5.153-29.828,11.832l-69.287-69.273
		c1.818-7.104-0.127-14.868-5.561-20.3L55.482,6.214c-8.283-8.28-21.76-8.279-30.041,0.003L6.212,25.445
		c-8.283,8.282-8.283,21.759,0,30.042L59.4,108.675c5.432,5.432,13.191,7.377,20.293,5.561l3.439,3.449l65.838,65.838
		c-6.678,10.074-10.59,19.949-11.83,29.826c-2.217,17.676,4.211,34.188,19.102,49.079c14.555,14.556,33.75,16.438,52.635,35.322
		c18.884,18.884-2.152,59.505,32.275,93.933c20.422,20.421,43.16,29.223,67.586,26.162c59.971-7.525,101.732-50.325,109.109-109.111
		C420.91,284.308,412.107,261.571,391.688,241.15z M281.107,281.102c-11.879,11.879-31.137,11.879-43.016,0
		c-11.879-11.878-11.879-31.136,0-43.016c11.879-11.878,31.137-11.878,43.016,0C292.986,249.966,292.986,269.224,281.107,281.102z"
		/>
</g>
<g>
</g>
<g>
</g>
<g>
</g>
<g>
</g>
<g>
</g>
<g>
</g>
<g>
</g>
<g>
</g>
<g>
</g>
<g>
</g>
<g>
</g>
<g>
</g>
<g>
</g>
<g>
</g>
<g>
</g>
</svg>
